<svg id="_x31__px" enable-background="new 0 0 24 24" height="512" viewBox="0 0 24 24" width="512" xmlns="http://www.w3.org/2000/svg"><path d="m11.812 21.192c-.133 0-.26-.053-.354-.146l-8.503-8.503c-.195-.195-.195-.512 0-.707l1.771-1.772c.974-.975 2.561-.976 3.536 0l5.675 5.675c.975.975.975 2.561 0 3.536l-1.772 1.772c-.094.092-.221.145-.353.145zm-7.796-9.004 7.796 7.796 1.419-1.419c.585-.585.585-1.537 0-2.122l-5.675-5.673c-.587-.585-1.537-.584-2.122 0z"/><path d="m21.374 11.214c-.384 0-.769-.146-1.061-.438l-7.089-7.089c-.283-.283-.439-.66-.439-1.061s.156-.778.439-1.061l1.419-1.418c.188-.188.52-.188.707 0l8.503 8.503c.094.094.147.221.147.353 0 .133-.053.26-.146.354l-1.419 1.418c-.292.293-.677.439-1.061.439zm-6.377-10.007-1.065 1.065c-.095.095-.146.22-.146.354 0 .133.052.259.146.354l7.089 7.089c.195.195.512.195.707 0l1.065-1.065z"/><path d="m13.581 16.588c-.128 0-.256-.049-.354-.146l-5.669-5.669c-.195-.195-.195-.512 0-.707l6.376-6.376c.195-.195.512-.195.707 0l5.669 5.669c.195.195.195.512 0 .707l-6.376 6.376c-.097.097-.225.146-.353.146zm-4.962-6.169 4.962 4.962 5.669-5.669-4.962-4.962z"/><path d="m.5 24c-.128 0-.256-.049-.354-.146-.195-.195-.195-.512 0-.707l7.06-7.06c.195-.195.512-.195.707 0s.195.512 0 .707l-7.06 7.06c-.097.097-.225.146-.353.146z"/></svg>