<?xml version="1.0" encoding="iso-8859-1"?>
<!-- Generator: Adobe Illustrator 19.0.0, SVG Export Plug-In . SVG Version: 6.00 Build 0)  -->
<svg version="1.1" id="Capa_1" xmlns="http://www.w3.org/2000/svg" xmlns:xlink="http://www.w3.org/1999/xlink" x="0px" y="0px"
	 viewBox="0 0 512.001 512.001" style="enable-background:new 0 0 512.001 512.001;" xml:space="preserve">
<g>
	<g>
		<path d="M466.25,72.969c0-34.015-22.92-51.806-24.068-53.452c-10.004-10.005-22.647-16.711-36.578-19.38
			c-4.12-0.791-8.117,1.918-8.898,6.047c-0.802,4.12,1.908,8.107,6.037,8.898c20.386,3.922,30.103,17.057,32.094,18.609
			c21.614,21.614,21.606,56.937,0,78.565l-30.084,30.085l-81.974-81.974l30.084-30.095c6.484-6.484,14.56-11.293,23.357-13.891
			c4.028-1.197,6.331-5.428,5.134-9.457c-1.187-4.028-5.428-6.331-9.457-5.134c-11.212,3.318-21.521,9.446-29.8,17.726
			l-30.084,30.085L297.31,34.899c-9.989-9.989-26.419-10.18-36.599,0l-17.685,17.675c-10.069,10.091-10.079,26.499,0,36.599
			l23.205,23.195L147.983,230.616c-2.973,2.973-2.973,7.793,0,10.766c2.973,2.973,7.793,2.973,10.766,0l47.827-47.827l64.979,64.979
			l-30.872,30.872c-4.8,4.8-1.346,12.998,5.388,12.998c5.999,0,1.268,0.673,108.193-105.047c4.28,0.044,7.755-3.42,7.711-7.711
			c-0.052-4.882-4.071-6.477-9.233-12.287l-64.979-64.979c-6.323-6.323-26.608-26.608-33.971-33.971
			c-4.162-4.162-4.096-10.971,0-15.068l17.685-17.685c4.159-4.159,10.969-4.098,15.068,0c42.746,42.746,79.155,79.155,132.91,132.91
			c4.09,4.09,4.169,10.898,0,15.068l-17.685,17.685c-4.149,4.149-10.931,4.137-15.068,0l-5.428-5.439
			c-2.973-2.963-7.793-2.963-10.766,0c-2.973,2.973-2.973,7.793,0,10.766l5.439,5.439c10.01,10.01,26.43,10.159,36.589,0
			l17.685-17.685c10.069-10.069,10.079-26.51,0-36.588l-14.702-14.702l30.084-30.095C458.914,109.7,466.25,91.923,466.25,72.969z
			 M341.975,188.112l-59.66,59.66l-64.979-64.979l59.66-59.66L341.975,188.112z"/>
	</g>
</g>
<g>
	<g>
		<path d="M229.927,310.936c-2.973-2.973-7.793-2.973-10.766,0l-19.857,19.847c-11.15,11.15-26.8,14.984-41.124,11.669
			c-2.557-0.588-5.236,0.173-7.092,2.029l-27.599,27.588c-4.038,4.048-9.446,6.281-15.22,6.281c-19.175,0-28.715-23.245-15.23-36.73
			l27.589-27.589c1.857-1.857,2.628-4.546,2.039-7.103c-6.371-27.439,14.055-43.312,14.56-44.026c2.973-2.973,2.973-7.793,0-10.755
			c-2.973-2.973-7.793-2.973-10.765,0c-0.661,0.947-24.762,20.069-19.451,53.97l-24.737,24.737
			c-6.92,6.92-10.725,16.153-10.725,25.995c0,32.747,39.73,48.961,62.706,25.985l24.737-24.737
			c18.397,2.872,37.362-2.833,51.078-16.549l19.857-19.857C232.9,318.729,232.9,313.909,229.927,310.936z"/>
	</g>
</g>
<g>
	<g>
		<path d="M121.235,456.932l-22.904-52.628c-5.006-11.505-21.387-11.522-26.402,0l-22.904,52.628
			c-10.914,25.075,6.344,56.489,38.582,55.02C115.294,510.705,131.965,481.587,121.235,456.932z M84.521,496.772
			c-17.603,0-28.234-18.387-21.54-33.769L85.13,412.11l22.15,50.894C113.566,477.449,104.962,496.522,84.521,496.772z"/>
	</g>
</g>
<g>
</g>
<g>
</g>
<g>
</g>
<g>
</g>
<g>
</g>
<g>
</g>
<g>
</g>
<g>
</g>
<g>
</g>
<g>
</g>
<g>
</g>
<g>
</g>
<g>
</g>
<g>
</g>
<g>
</g>
</svg>
